<svg xmlns="http://www.w3.org/2000/svg" aria-hidden="true" style="position:absolute;width:0;height:0;overflow:hidden">
    <defs>
        <symbol id="icon-enterpreneur" viewBox="0 0 32 32">
            <path fill="#d6b1ff" d="M24 13.333h8L28 8l-4 5.333zm0 5.334h8L28 24l-4-5.333z" style="fill:var(--color1, #d6b1ff)"/>
            <path fill="#02897a" d="M1.333 0h8v32h-8a1.334 1.334 0 0 1-1.334-1.334V1.333A1.335 1.335 0 0 1 1.333-.001zM12 0h8a1.335 1.335 0 0 1 1.334 1.334v29.333A1.334 1.334 0 0 1 20 32.001h-8v-32z" style="fill:var(--color2, #02897a)"/>
        </symbol>
        <symbol id="icon-accountants" viewBox="0 0 32 32">
            <path fill="#d6b1ff" d="M28 32H16a1.334 1.334 0 0 1-1.334-1.334v-2.667A1.334 1.334 0 0 1 16 26.665h12a1.334 1.334 0 0 1 1.334 1.334v2.667A1.334 1.334 0 0 1 28 32z" style="fill:var(--color1, #d6b1ff)"/>
            <path fill="#11b5e4" d="M28 0H4a1.335 1.335 0 0 0-1.334 1.334v2.667A1.335 1.335 0 0 0 4 5.335h24a1.335 1.335 0 0 0 1.334-1.334V1.334A1.334 1.334 0 0 0 28 0zM28 8H4a1.335 1.335 0 0 0-1.334 1.334v13.333A1.335 1.335 0 0 0 4 24.001h24a1.334 1.334 0 0 0 1.334-1.334V9.334A1.334 1.334 0 0 0 28 8z" style="fill:var(--color3, #11b5e4)"/>
        </symbol>
        <symbol id="icon-universities" viewBox="0 0 32 32">
            <path fill="#d6b1ff" d="M6.667 1.333h-4a1.335 1.335 0 0 0-1.334 1.334v26.667a1.335 1.335 0 0 0 1.334 1.334h4V1.335z" style="fill:var(--color1, #d6b1ff)"/>
            <path fill="#f03e3d" d="M9.333 30.667h13.333V1.334H9.333v29.333zM16 25.333a1.334 1.334 0 1 1 0-2.667 1.334 1.334 0 0 1 0 2.667zm0-18.666a1.335 1.335 0 0 1 .943 2.277A1.334 1.334 0 1 1 16 6.667zm0 8a1.334 1.334 0 1 1 0 2.667 1.334 1.334 0 0 1 0-2.667zM29.333 1.333h-4v29.333h4a1.334 1.334 0 0 0 1.334-1.334V2.665a1.334 1.334 0 0 0-1.334-1.334z" style="fill:var(--color4, #f03e3d)"/>
        </symbol>
        <symbol id="icon-facebook" viewBox="0 0 32 32">
            <path stroke-linecap="round" stroke-linejoin="round" stroke-width="2.667" d="M24 2.667h-4a6.67 6.67 0 0 0-6.667 6.667v4h-4v5.333h4v10.667h5.333V18.667h4l1.333-5.333h-5.333v-4A1.334 1.334 0 0 1 20 8h4V2.667z"/>
        </symbol>
        <symbol id="icon-instagram" viewBox="0 0 32 32">
            <path stroke-linecap="round" stroke-linejoin="round" stroke-width="2.667" d="M22.667 2.667H9.334a6.667 6.667 0 0 0-6.667 6.667v13.333a6.667 6.667 0 0 0 6.667 6.667h13.333a6.667 6.667 0 0 0 6.667-6.667V9.334a6.667 6.667 0 0 0-6.667-6.667z"/>
            <path stroke-linecap="round" stroke-linejoin="round" stroke-width="2.667" d="M21.333 15.16a5.338 5.338 0 0 1-6.123 6.049 5.334 5.334 0 1 1 6.124-6.048zM23.333 8.667h.013"/>
        </symbol>
        <symbol id="icon-minus-circle" viewBox="0 0 32 32">
            <path d="M0 16C0 7.168 7.168 0 16 0s16 7.168 16 16-7.168 16-16 16S0 24.832 0 16zm8 1.6h16v-3.2H8v3.2z"/>
        </symbol>
        <symbol id="icon-path" viewBox="0 0 32 32">
            <path d="M29.767 5.156a1.487 1.487 0 0 0-2.133 0L9.559 23.581l-6.948-7.082c-.589-.601-1.544-.601-2.134 0s-.589 1.574 0 2.175l8.014 8.17c.589.6 1.545.6 2.134 0L29.767 7.331a1.56 1.56 0 0 0 0-2.175z"/>
        </symbol>
        <symbol id="icon-plus-circle" viewBox="0 0 32 32">
            <path d="M0 16C0 7.168 7.168 0 16 0s16 7.168 16 16-7.168 16-16 16S0 24.832 0 16zm17.6 1.6H24v-3.2h-6.4V8h-3.2v6.4H8v3.2h6.4V24h3.2v-6.4z"/>
        </symbol>
        <symbol id="icon-twitter" viewBox="0 0 32 32">
            <path stroke-linecap="round" stroke-linejoin="round" stroke-width="2.667" d="M30.667 4.013a14.542 14.542 0 0 1-4.187 2.04 5.975 5.975 0 0 0-6.637-1.661A5.979 5.979 0 0 0 16 10.053v1.333a14.211 14.211 0 0 1-12-6.04s-5.333 12 6.667 17.333a15.519 15.519 0 0 1-9.333 2.667c12 6.667 26.667 0 26.667-15.333a5.966 5.966 0 0 0-.107-1.107 10.288 10.288 0 0 0 2.773-4.893z"/>
        </symbol>
        <symbol id="icon-star-full" viewBox="0 0 32 32">
            <path d="M30.432 11.938c-.092-.267-.261-.501-.487-.674s-.497-.277-.782-.3l-8.335-.652-3.607-7.862c-.115-.253-.302-.468-.538-.619a1.482 1.482 0 0 0-1.587-.001 1.442 1.442 0 0 0-.539.619l-3.607 7.864-8.335.652c-.28.022-.548.123-.771.29a1.435 1.435 0 0 0-.538 1.467c.063.27.203.516.404.709l6.16 5.913-2.178 9.289c-.066.281-.045.575.061.844s.291.501.532.665a1.477 1.477 0 0 0 1.644.012l7.961-5.226 7.961 5.226a1.486 1.486 0 0 0 1.672-.036c.242-.173.423-.416.521-.694a1.41 1.41 0 0 0 .025-.862l-2.674-9.214 6.632-5.877c.434-.386.594-.988.406-1.533z"/>
        </symbol>
        <symbol id="icon-star" viewBox="0 0 32 32">
            <path d="m8.17 19.52-2.293 9.778c-.071.296-.05.606.061.89s.306.529.56.701a1.552 1.552 0 0 0 1.731.01l8.38-5.501 8.38 5.501a1.559 1.559 0 0 0 1.76-.038c.254-.182.446-.437.549-.73s.112-.61.026-.908l-2.815-9.699 6.981-6.186a1.492 1.492 0 0 0 .427-1.613c-.097-.281-.275-.527-.512-.709s-.524-.291-.824-.315l-8.774-.688-3.797-8.276c-.121-.266-.318-.493-.567-.652a1.552 1.552 0 0 0-2.237.652l-3.797 8.276-8.774.687c-.295.023-.577.129-.812.306s-.414.416-.514.69a1.49 1.49 0 0 0 .373 1.6l6.485 6.224zm4.391-6.556c.275-.021.539-.115.764-.271s.404-.369.517-.617l2.769-6.033 2.769 6.033c.113.248.291.461.517.617s.489.25.764.271l6.113.477-5.034 4.462a1.504 1.504 0 0 0-.451 1.543l1.928 6.645-5.75-3.775a1.544 1.544 0 0 0-1.706 0l-6.008 3.945 1.616-6.889a1.5 1.5 0 0 0-.425-1.425l-4.676-4.489 6.295-.494z"/>
        </symbol>
        <symbol id="icon-heart" viewBox="0 0 32 32">
            <path d="M16 29.286c.286 0 .571-.107.786-.322L27.911 18.25C28.072 18.089 32 14.5 32 10.214c0-5.232-3.196-8.357-8.536-8.357-3.125 0-6.053 2.464-7.464 3.857-1.411-1.393-4.339-3.857-7.464-3.857C3.197 1.857 0 4.982 0 10.214c0 4.286 3.929 7.875 4.071 8l11.143 10.75c.214.214.5.322.786.322z"/>
        </symbol>
        <symbol id="icon-snake" viewBox="0 0 32 32">
            <path d="m16.857 13.587 2.079.968 3.095-.921v-2.159c0-3.667-3.095-6.603-6.794-6.603-3.683 0-6.794 2.921-6.794 6.556v9.841c0 .905-.73 1.619-1.619 1.619s-1.619-.714-1.619-1.619V17.11H-.001v4.222a6.809 6.809 0 0 0 6.81 6.81c3.73 0 6.809-3 6.809-6.714v-9.714c0-.889.73-1.619 1.619-1.619s1.619.73 1.619 1.619v1.873zm8.413 3.524v4.365c0 .889-.73 1.603-1.619 1.603s-1.619-.714-1.619-1.603V17.19l-3.095.921-2.079-.968v4.254c0 3.73 3.064 6.746 6.81 6.746a6.809 6.809 0 0 0 6.81-6.81v-4.222h-5.206z"/>
        </symbol>
        <symbol id="icon-cursor" viewBox="0 0 32 32">
            <path d="M24.689 18.067 7.479.857a1.003 1.003 0 0 0-.756-.319c-.134 0-.286.034-.403.084a1.079 1.079 0 0 0-.672.992v25.277c0 .437.269.824.672.992.118.05.269.084.403.084.286 0 .555-.118.756-.319l5.244-5.244 3.21 7.597a1.08 1.08 0 0 0 1.412.571l2.975-1.261a1.08 1.08 0 0 0 .571-1.412l-3.378-8h6.42c.437 0 .824-.269.992-.672a1.038 1.038 0 0 0-.235-1.16z"/>
        </symbol>
        <symbol id="icon-hourglass" viewBox="0 0 32 32">
            <path d="M26.487 2.689h1.614a.531.531 0 0 0 .538-.538V1.075a.53.53 0 0 0-.538-.538H3.361a.53.53 0 0 0-.538.538v1.076a.53.53 0 0 0 .538.538h1.613c0 6.219 2.975 10.723 6.269 12.908-3.294 2.185-6.269 6.689-6.269 12.908H3.361a.53.53 0 0 0-.538.538v1.076c0 .302.235.538.538.538h24.74a.531.531 0 0 0 .538-.538v-1.076a.531.531 0 0 0-.538-.538h-1.614c0-6.219-2.975-10.723-6.269-12.908 3.294-2.185 6.269-6.689 6.269-12.908zm-2.151 0c0 2.454-.555 4.622-1.429 6.454H8.554c-.874-1.832-1.429-4-1.429-6.454h17.21zm-.958 20.437H8.084c1.244-3.244 3.479-5.546 5.714-6.454h3.866c2.235.908 4.471 3.21 5.714 6.454z"/>
        </symbol>
        <symbol id="icon-tel" viewBox="0 0 21 32">
            <path d="M18.424 0H2.909C1.303 0 0 1.344 0 3v26c0 1.656 1.303 3 2.909 3h15.515c1.606 0 2.909-1.344 2.909-3V3c0-1.656-1.303-3-2.909-3zm-4.848 27.944c0 .606-.436 1.056-.97 1.056H8.673c-.479 0-.915-.45-.915-1s.436-1 .97-1h3.879c.533 0 .97.45.97.944zM17.455 24H3.879V4h13.576v20z"/>
        </symbol>
        <symbol id="iconAirbnb-Logo" viewBox="0 0 102 32">
            <path fill="#ff385c" d="M29.171 22.679c-.16-.39-.309-.8-.469-1.15l-.738-1.67-.03-.03c-2.195-4.8-4.539-9.68-7.023-14.48l-.1-.2c-.249-.47-.499-.99-.758-1.47-.319-.57-.629-1.18-1.137-1.76A5.272 5.272 0 0 0 12.563.487a5.285 5.285 0 0 0-1.827 1.432c-.469.58-.818 1.19-1.137 1.76-.249.52-.499 1.03-.758 1.5l-.1.2c-2.444 4.8-4.829 9.68-7.023 14.48l-.06.06c-.219.52-.479 1.06-.728 1.64-.16.35-.319.73-.479 1.15a6.808 6.808 0 0 0 3.736 8.776 6.776 6.776 0 0 0 3.448.455 8.341 8.341 0 0 0 3.172-1.1c1.297-.73 2.544-1.79 3.941-3.32 1.397 1.53 2.674 2.59 3.941 3.33A8.337 8.337 0 0 0 22.7 32c1.635.007 3.218-.58 4.456-1.651s2.047-2.556 2.278-4.179a5.957 5.957 0 0 0-.259-3.5v.01zm-14.326 1.66c-1.716-2.2-2.833-4.22-3.212-5.95a5.216 5.216 0 0 1-.1-1.96c.07-.51.259-.96.519-1.34.599-.87 1.646-1.41 2.793-1.41a3.3 3.3 0 0 1 2.794 1.4c.259.4.449.84.509 1.35.1.58.06 1.25-.1 1.96-.379 1.7-1.497 3.74-3.202 5.95zm12.71 1.48a4.76 4.76 0 0 1-2.893 3.75c-.758.32-1.596.41-2.414.32a6.236 6.236 0 0 1-2.414-.84 15.638 15.638 0 0 1-3.622-3.1c2.095-2.6 3.362-4.97 3.841-7.08.229-1 .259-1.9.16-2.73a5.54 5.54 0 0 0-.858-2.2 5.342 5.342 0 0 0-4.479-2.28c-1.846 0-3.492.86-4.489 2.27a5.194 5.194 0 0 0-.848 2.21c-.13.84-.1 1.77.16 2.73.479 2.11 1.776 4.51 3.841 7.1a14.304 14.304 0 0 1-3.621 3.12c-.828.48-1.616.73-2.414.83-1.241.159-2.495-.179-3.489-.941s-1.647-1.887-1.819-3.129c-.1-.8-.03-1.6.289-2.5.1-.32.249-.64.409-1.02.219-.52.479-1.06.728-1.6l.04-.07a326.77 326.77 0 0 1 6.954-14.41l.1-.2c.249-.48.499-.99.758-1.47.259-.51.539-1 .898-1.4a3.307 3.307 0 0 1 5.078 0c.349.4.638.89.898 1.4.249.48.499 1 .758 1.47l.1.2c2.434 4.77 4.789 9.64 6.984 14.41l.03.03c.259.52.479 1.1.728 1.6.16.39.319.7.419 1.03.19.9.289 1.7.19 2.5zm13.887-1.7a5 5 0 0 1-3.941-1.83 6.56 6.56 0 0 1-1.596-4.48 6.974 6.974 0 0 1 1.656-4.58c.502-.589 1.126-1.061 1.829-1.383s1.468-.484 2.241-.477c.727-.02 1.448.146 2.093.482s1.196.831 1.598 1.438l.1-1.57h2.913v12.08h-2.923l-.1-1.76a4.507 4.507 0 0 1-3.871 2.08zm.758-2.88c.579 0 1.087-.16 1.566-.45a3.76 3.76 0 0 0 1.078-1.25c.249-.51.379-1.12.379-1.8a3.426 3.426 0 0 0-1.467-3.04 2.934 2.934 0 0 0-3.112 0c-.439.32-.798.74-1.077 1.25a4.009 4.009 0 0 0-.379 1.8 3.426 3.426 0 0 0 1.467 3.04c.469.29.978.45 1.546.45zm11.124-12.78c0 .35-.06.67-.22.93-.16.25-.379.48-.668.64s-.599.22-.918.22-.639-.06-.928-.22a1.83 1.83 0 0 1-.668-.64 1.838 1.838 0 0 1-.22-.93c0-.36.07-.68.22-.93.16-.3.389-.48.668-.64.289-.16.599-.23.928-.23a1.829 1.829 0 0 1 1.596.86c.145.292.217.614.21.94zm-3.392 15.3v-12.06h3.172v12.08h-3.182l.01-.02zm11.653-8.9v.04c-.15-.07-.349-.1-.499-.13-.2-.04-.359-.04-.549-.04-.888 0-1.556.26-1.995.8-.479.55-.698 1.32-.698 2.31v5.93h-3.182v-12.08h2.923l.1 1.83c.319-.64.698-1.12 1.237-1.48a3.09 3.09 0 0 1 1.806-.5c.23 0 .449.02.639.06.1.03.16.03.219.06v3.2zm1.277 8.9V6.739h3.173v6.5c.449-.58.957-1.03 1.596-1.38a4.995 4.995 0 0 1 6.066 1.31 6.557 6.557 0 0 1 1.596 4.49 6.969 6.969 0 0 1-1.656 4.58 5.269 5.269 0 0 1-4.07 1.86c-.727.02-1.448-.146-2.093-.482s-1.196-.831-1.598-1.438l-.1 1.57-2.913.03v-.02zm6.135-2.52c.569 0 1.078-.16 1.556-.45a3.76 3.76 0 0 0 1.078-1.25c.259-.51.379-1.12.379-1.8 0-.67-.12-1.28-.379-1.79a3.738 3.738 0 0 0-1.078-1.25 2.934 2.934 0 0 0-3.112 0c-.449.32-.799.74-1.088 1.25a4.009 4.009 0 0 0-.379 1.8 3.426 3.426 0 0 0 1.467 3.04c.468.29.977.45 1.556.45zm7.493 2.53v-12.08h2.923l.1 1.57a3.951 3.951 0 0 1 3.532-1.89c.804-.014 1.594.21 2.272.644s1.213 1.059 1.539 1.796c.349.76.539 1.7.539 2.75v7.24h-3.183v-6.82c0-.84-.189-1.5-.568-1.99-.38-.48-.898-.74-1.556-.74-.479 0-.898.1-1.267.32a2.5 2.5 0 0 0-.858.93 2.7 2.7 0 0 0-.319 1.35v6.92h-3.153zm12.49 0V6.729h3.182v6.5a4.664 4.664 0 0 1 3.722-1.89 5.003 5.003 0 0 1 3.941 1.83 6.578 6.578 0 0 1 1.586 4.48 6.957 6.957 0 0 1-1.656 4.58 5.269 5.269 0 0 1-4.07 1.86c-.727.02-1.448-.146-2.093-.482s-1.196-.831-1.598-1.438l-.09 1.57-2.923.03zm6.166-2.53c.579 0 1.087-.16 1.556-.45.449-.32.798-.74 1.087-1.25.25-.51.379-1.12.379-1.8a3.426 3.426 0 0 0-1.466-3.04 2.934 2.934 0 0 0-3.112 0c-.439.32-.798.74-1.077 1.25a3.652 3.652 0 0 0-.38 1.8 3.416 3.416 0 0 0 1.467 3.04c.469.29.948.45 1.546.45z" style="fill:var(--color1, #ff385c)"/>
        </symbol>
        <symbol id="iconFedEx-Logo" viewBox="0 0 107 32">
            <path fill="#f60" d="m79.321 31.042 8.896-9.852-8.896-9.854h9.386l4.406 4.786 4.242-4.786h9.058l-8.853 9.813 8.975 9.893H97.11l-4.366-4.826-4.325 4.826H79.32z" style="fill:var(--color2, #f60)"/>
            <path fill="#f60" d="M79.321 6.919H69.246v4.417h10.075v6.657H69.246v6.111h10.075v6.938h-17.48V0h17.48v6.919z" style="fill:var(--color2, #f60)"/>
            <path fill="#652c8f" d="M54.468 0v12.704h-.081c-1.633-1.85-3.672-2.492-6.039-2.492-4.848 0-8.499 3.248-9.781 7.543-1.462-4.732-5.232-7.632-10.822-7.632-4.54 0-8.125 2.009-9.996 5.282v-4.068H8.365V6.92h10.241V0H.001v31.043h8.365V17.994h8.338a12.185 12.185 0 0 0-.381 3.068c0 6.475 5.018 11.019 11.423 11.019 5.386 0 8.935-2.492 10.812-7.036H31.39c-.97 1.365-1.705 1.77-3.644 1.77-2.248 0-4.186-1.933-4.186-4.225h14.597c.633 5.143 4.698 9.579 10.275 9.579a7.175 7.175 0 0 0 5.956-3.136h.081v2.01h7.374V.001h-7.374zM23.791 18.086c.465-1.972 2.016-3.26 3.953-3.26 2.132 0 3.604 1.249 3.992 3.26h-7.945zm26.202 8.23c-2.718 0-4.407-2.496-4.407-5.103 0-2.786 1.469-5.466 4.407-5.466 3.046 0 4.26 2.679 4.26 5.466 0 2.642-1.286 5.103-4.26 5.103z" style="fill:var(--color3, #652c8f)"/>
        </symbol>
        <symbol id="iconGoogle-Logo" viewBox="0 0 93 32">
            <path fill="#ea4335" d="M39.763 16.41c0 4.442-3.432 7.715-7.644 7.715s-7.644-3.273-7.644-7.715c0-4.473 3.432-7.715 7.644-7.715s7.644 3.242 7.644 7.715zm-3.346 0c0-2.776-1.989-4.675-4.298-4.675s-4.298 1.899-4.298 4.675c0 2.748 1.989 4.675 4.298 4.675s4.298-1.93 4.298-4.675z" style="fill:var(--color4, #ea4335)"/>
            <path fill="#fbbc05" d="M56.253 16.41c0 4.442-3.432 7.715-7.644 7.715s-7.644-3.273-7.644-7.715c0-4.47 3.432-7.715 7.644-7.715s7.644 3.242 7.644 7.715zm-3.346 0c0-2.776-1.989-4.675-4.298-4.675s-4.298 1.899-4.298 4.675c0 2.748 1.989 4.675 4.298 4.675s4.298-1.93 4.298-4.675z" style="fill:var(--color5, #fbbc05)"/>
            <path fill="#4285f4" d="M72.055 9.162v13.85c0 5.697-3.318 8.024-7.242 8.024-3.693 0-5.915-2.501-6.754-4.546l2.913-1.228c.519 1.256 1.79 2.737 3.837 2.737 2.511 0 4.067-1.569 4.067-4.522v-1.11h-.116c-.749.936-2.192 1.753-4.013 1.753-3.81 0-7.3-3.36-7.3-7.683 0-4.355 3.49-7.743 7.3-7.743 1.818 0 3.26.817 4.013 1.725h.116V9.163h3.178v-.004zm-2.941 7.276c0-2.717-1.789-4.703-4.067-4.703-2.308 0-4.242 1.986-4.242 4.703 0 2.689 1.934 4.647 4.242 4.647 2.278 0 4.067-1.958 4.067-4.647z" style="fill:var(--color6, #4285f4)"/>
            <path fill="#34a853" d="M77.294 1.043v22.609h-3.263V1.043h3.263z" style="fill:var(--color7, #34a853)"/>
            <path fill="#ea4335" d="m90.012 18.95 2.597 1.753c-.838 1.256-2.858 3.419-6.348 3.419-4.329 0-7.561-3.388-7.561-7.715 0-4.588 3.26-7.715 7.187-7.715 3.954 0 5.888 3.186 6.52 4.908l.348.876-10.186 4.271c.78 1.548 1.992 2.337 3.693 2.337 1.704 0 2.886-.849 3.751-2.136zm-7.994-2.776 6.808-2.863c-.374-.964-1.501-1.635-2.827-1.635-1.7 0-4.068 1.52-3.981 4.497z" style="fill:var(--color4, #ea4335)"/>
            <path fill="#4285f4" d="M12.123 14.403V11.13h10.893c.107.57.161 1.245.161 1.976 0 2.456-.663 5.492-2.8 7.656-2.078 2.191-4.734 3.36-8.252 3.36-6.52 0-12.003-5.377-12.003-11.979S5.605.164 12.125.164c3.607 0 6.177 1.433 8.107 3.301l-2.281 2.31c-1.384-1.315-3.26-2.337-5.83-2.337-4.761 0-8.485 3.885-8.485 8.706s3.724 8.706 8.485 8.706c3.088 0 4.847-1.256 5.974-2.397.914-.925 1.515-2.247 1.752-4.052l-7.726.003z" style="fill:var(--color6, #4285f4)"/>
        </symbol>
        <symbol id="iconMicrosoft-Logo" viewBox="0 0 155 32">
            <path fill="#737373" d="m54.68 18.431-.923 2.53h-.077a17.536 17.536 0 0 0-.898-2.481l-4.95-12.031h-4.847v19.175h3.206V13.791c0-.744 0-1.588-.026-2.629-.026-.521-.077-.918-.103-1.216h.077c.154.744.333 1.29.462 1.637l5.95 13.991h2.257l5.899-14.115c.128-.322.257-.967.385-1.513h.077a175.576 175.576 0 0 0-.154 3.448v12.155h3.411V6.399h-4.668L54.68 18.43zm12.977-6.623h3.334v13.743h-3.334V11.808zm1.693-5.805c-.564 0-1.026.198-1.411.546s-.59.794-.59 1.34c0 .521.205.967.59 1.315s.846.521 1.411.521 1.052-.198 1.411-.521c.385-.347.59-.794.59-1.315s-.205-.967-.59-1.34c-.333-.347-.821-.546-1.411-.546zm13.465 5.681a9.602 9.602 0 0 0-1.872-.198c-1.513 0-2.898.322-4.052.967s-2.077 1.538-2.667 2.654c-.616 1.141-.924 2.456-.924 3.969 0 1.315.308 2.481.897 3.547.59 1.042 1.411 1.885 2.513 2.456 1.052.571 2.283.868 3.668.868 1.591 0 2.95-.322 4.027-.918l.025-.025v-2.977l-.128.099a5.82 5.82 0 0 1-1.616.819c-.59.198-1.129.298-1.59.298-1.334 0-2.385-.372-3.129-1.191-.769-.794-1.154-1.885-1.154-3.25 0-1.414.385-2.53 1.18-3.349s1.847-1.24 3.129-1.24c1.077 0 2.18.347 3.18 1.042l.128.099v-3.15l-.025-.025c-.436-.174-.924-.372-1.591-.496zm11.002-.1c-.82 0-1.59.248-2.257.769-.564.447-.949 1.091-1.283 1.86h-.025v-2.406h-3.334V25.55h3.334v-7.02c0-1.191.257-2.183.821-2.902.564-.744 1.282-1.116 2.154-1.116.308 0 .615.074 1 .124.359.099.616.198.795.322l.129.099v-3.225l-.077-.025c-.231-.149-.692-.223-1.257-.223zm9.08-.074c-2.334 0-4.207.67-5.514 1.985-1.334 1.315-1.975 3.126-1.975 5.408 0 2.133.667 3.87 1.95 5.135 1.282 1.24 3.026 1.885 5.206 1.885 2.283 0 4.104-.67 5.412-2.009 1.334-1.34 1.975-3.126 1.975-5.333 0-2.183-.616-3.919-1.873-5.184-1.205-1.265-2.975-1.885-5.18-1.885zm2.667 10.567c-.615.769-1.59 1.141-2.796 1.141s-2.18-.372-2.872-1.191c-.692-.769-1.026-1.885-1.026-3.299 0-1.464.359-2.58 1.026-3.374.692-.794 1.641-1.191 2.847-1.191 1.18 0 2.103.372 2.77 1.141s1.025 1.885 1.025 3.349c-.051 1.488-.333 2.654-.975 3.423zm11.823-4.564c-1.051-.422-1.718-.744-2.025-1.017-.257-.248-.385-.595-.385-1.042 0-.372.153-.744.538-.992s.821-.372 1.462-.372c.564 0 1.154.099 1.719.248s1.077.372 1.487.67l.129.099v-3.026l-.077-.025a9.462 9.462 0 0 0-1.513-.422 10.647 10.647 0 0 0-1.641-.149c-1.59 0-2.898.372-3.924 1.191-1.026.769-1.513 1.811-1.513 3.026 0 .645.103 1.215.334 1.687s.564.918 1.025 1.29c.462.347 1.129.744 2.052 1.116.769.322 1.359.571 1.719.769s.59.422.769.595c.128.198.205.447.205.769 0 .918-.718 1.364-2.18 1.364-.564 0-1.154-.099-1.847-.322s-1.334-.546-1.873-.918l-.128-.099v3.15l.077.025c.487.223 1.077.372 1.795.546.719.124 1.359.223 1.924.223 1.719 0 3.129-.372 4.129-1.191 1.025-.794 1.564-1.811 1.564-3.126 0-.918-.257-1.736-.821-2.357a10.492 10.492 0 0 0-3.001-1.712zm12.619-6.003c-2.334 0-4.207.67-5.514 1.985s-1.975 3.126-1.975 5.408c0 2.133.667 3.87 1.95 5.135 1.282 1.24 3.026 1.885 5.206 1.885 2.283 0 4.104-.67 5.412-2.009 1.334-1.34 1.975-3.126 1.975-5.333 0-2.183-.616-3.919-1.873-5.184-1.205-1.265-2.975-1.885-5.18-1.885zm2.641 10.567c-.615.769-1.59 1.141-2.796 1.141-1.231 0-2.18-.372-2.872-1.191-.693-.769-1.026-1.885-1.026-3.299 0-1.464.359-2.58 1.026-3.374.692-.794 1.641-1.191 2.847-1.191 1.154 0 2.103.372 2.77 1.141s1.025 1.885 1.025 3.349c0 1.488-.333 2.654-.975 3.423zm22.237-7.615v-2.654h-3.36V7.74l-.103.025-3.257.943v3.101h-5.027v-1.736c0-.794.206-1.414.564-1.811s.898-.595 1.564-.595c.462 0 .949.099 1.488.322l.128.074V5.26l-.077-.025c-.461-.149-1.077-.248-1.872-.248-1 0-1.872.223-2.668.595a4.372 4.372 0 0 0-1.82 1.761c-.436.744-.667 1.588-.667 2.555v1.91h-2.334v2.629h2.334V25.55h3.359V14.462h5.027v7.07c0 2.902 1.411 4.366 4.232 4.366.462 0 .949-.074 1.411-.149.487-.099.846-.223 1.052-.322l.025-.025v-2.654l-.129.099a2.221 2.221 0 0 1-.692.298 2.432 2.432 0 0 1-.667.099c-.666 0-1.128-.149-1.462-.521-.308-.347-.461-.918-.461-1.761v-6.499h3.411z" style="fill:var(--color8, #737373)"/>
            <path fill="#f25022" d="M0 0h15.722v15.206H0V0z" style="fill:var(--color9, #f25022)"/>
            <path fill="#7fba00" d="M17.363 0h15.722v15.206H17.363V0z" style="fill:var(--color10, #7fba00)"/>
            <path fill="#00a4ef" d="M0 16.794h15.722V32H0V16.794z" style="fill:var(--color11, #00a4ef)"/>
            <path fill="#ffb900" d="M17.363 16.794h15.722V32H17.363V16.794z" style="fill:var(--color12, #ffb900)"/>
        </symbol>
    </defs>
</svg>